<svg width="704" height="704" viewBox="0 0 704 704" fill="none" xmlns="http://www.w3.org/2000/svg">
  <path opacity="0.8" fill-rule="evenodd" clip-rule="evenodd"
    d="M565.875 349.836C565.875 235.978 478.731 144.76 372.5 144.76L372.5 0.000262852C556.15 0.000252486 704 157.224 704 349.836C704 542.447 556.15 699.671 372.5 699.671L372.5 554.912C478.731 554.912 565.875 463.693 565.875 349.836Z"
    fill="#262146" />
  <path fill-rule="evenodd" clip-rule="evenodd"
    d="M234.375 349.836C234.375 235.978 147.231 144.76 41.0001 144.76L41.0001 0.000258983C224.65 0.00025076 372.5 157.224 372.5 349.836C372.5 542.447 224.65 699.671 41.0001 699.671L41.0001 554.912C147.231 554.912 234.375 463.693 234.375 349.836Z"
    fill="#262146" />
  <path d="M372.5 699.671H41.0001V555.621H372.5V699.671Z" fill="#514D6B" />
  <path d="M372.5 144.05H41.0001V-4.83077e-05H372.5V144.05Z" fill="#FF3E3E" />
</svg>
  
