<svg width="163" height="128" viewBox="0 0 163 128" fill="none" xmlns="http://www.w3.org/2000/svg">
  <path opacity="0.2"
    d="M33.6086 34.8355C35.0997 30.7022 38.92 27.9612 43.1899 27.9612H148.277C155.408 27.9612 160.349 35.3107 157.859 42.213L129.391 121.126C127.9 125.259 124.08 128 119.81 128H14.7225C7.59219 128 2.65119 120.651 5.14118 113.748L33.6086 34.8355Z"
    fill="white" />
  <path opacity="0.4"
    d="M22.2871 23.8177C23.3222 18.9789 27.4743 15.5339 32.2713 15.5339H138.239C144.776 15.5339 149.634 21.7829 148.223 28.3764L128.684 119.716C127.649 124.555 123.496 128 118.699 128H12.7316C6.19507 128 1.33694 121.751 2.74745 115.157L22.2871 23.8177Z"
    fill="white" />
  <path opacity="0.6"
    d="M11.1128 12.6239C11.6331 7.22178 16.0326 3.10669 21.2877 3.10669H127.648C133.695 3.10669 138.422 8.4991 137.823 14.7157L127.828 118.483C127.308 123.885 122.908 128 117.653 128H11.293C5.2456 128 0.519354 122.607 1.11813 116.391L11.1128 12.6239Z"
    fill="white" />
  <path
    d="M0 10.5631C0 4.72927 4.57793 0 10.2251 0H116.686C122.334 0 126.911 4.72926 126.911 10.5631V117.437C126.911 123.271 122.334 128 116.686 128H10.2251C4.57793 128 0 123.271 0 117.437V10.5631Z"
    fill="white" />
  <path opacity="0.8" fill-rule="evenodd" clip-rule="evenodd"
    d="M82.9283 63.4919C82.9283 51.9281 74.1529 42.6637 63.4555 42.6637L63.4555 27.9614C81.9489 27.9614 96.8374 43.9296 96.8374 63.4919C96.8374 83.0541 81.949 99.0223 63.4555 99.0223L63.4555 84.3201C74.1529 84.3201 82.9283 75.0556 82.9283 63.4919Z"
    fill="#262146" />
  <path fill-rule="evenodd" clip-rule="evenodd"
    d="M49.5464 63.4919C49.5464 51.9281 40.771 42.6637 30.0737 42.6637L30.0737 27.9614C48.5671 27.9614 63.4556 43.9296 63.4556 63.4919C63.4556 83.0541 48.5671 99.0223 30.0737 99.0223L30.0737 84.3201C40.771 84.3201 49.5464 75.0556 49.5464 63.4919Z"
    fill="#262146" />
  <path d="M63.4556 99.0222H30.0737V84.392H63.4556V99.0222Z" fill="#514D6B" />
  <path d="M63.4556 42.5916H30.0737V27.9614H63.4556V42.5916Z" fill="#FF3E3E" />
</svg>
  
