<svg width="190" height="357" viewBox="0 0 190 357" fill="none" xmlns="http://www.w3.org/2000/svg">
  <path opacity="0.6"
    d="M-291.121 218.633C-297.847 204.655 -293.185 188.08 -280.338 180.3L-20.3175 22.838C-5.53341 13.8851 14.0053 20.0728 21.7461 36.1592L150.956 304.672C157.683 318.651 153.021 335.226 140.174 343.006L-119.847 500.468C-134.631 509.421 -154.17 503.233 -161.911 487.147L-291.121 218.633Z"
    fill="white" />
  <path
    d="M-321.354 229.927C-329.995 215.658 -325.8 197.309 -311.983 188.942L-51.5133 31.2077C-37.6968 22.8408 -19.4916 27.6252 -10.8508 41.8939L147.445 303.292C156.086 317.561 151.89 335.911 138.074 344.277L-122.396 502.011C-136.212 510.378 -154.418 505.594 -163.058 491.325L-321.354 229.927Z"
    fill="white" />
</svg>
  
