<svg width="149" height="323" viewBox="0 0 149 323" fill="none" xmlns="http://www.w3.org/2000/svg">
  <path opacity="0.6"
    d="M-215.843 39.4679C-212.825 24.2512 -199.141 13.7996 -184.197 15.2958L118.273 45.5787C135.47 47.3006 147.375 63.9834 143.902 81.4943L85.9305 373.785C82.9125 389.002 69.2294 399.453 54.2849 397.957L-248.185 367.674C-265.382 365.952 -277.287 349.27 -273.814 331.759L-215.843 39.4679Z"
    fill="white" />
  <path
    d="M-246.798 30.3383C-245.137 13.7401 -230.761 1.58911 -214.689 3.19822L88.3037 33.5335C104.376 35.1426 116.058 49.9025 114.396 66.5007L83.9524 370.573C82.2906 387.171 67.9145 399.322 51.8425 397.713L-251.15 367.378C-267.222 365.768 -278.904 351.009 -277.242 334.41L-246.798 30.3383Z"
    fill="white" />
</svg>
  
