<svg width="18" height="20" viewBox="0 0 18 20" fill="none" xmlns="http://www.w3.org/2000/svg">
  <path
    d="M17.0303 4.21966L13.2803 0.469656C13.2107 0.400009 13.128 0.344763 13.037 0.307074C12.946 0.269385 12.8485 0.249991 12.75 0.25H5.25C4.85231 0.250447 4.47104 0.408625 4.18983 0.689833C3.90863 0.971041 3.75045 1.35231 3.75 1.75V3.25H2.25C1.85231 3.25045 1.47104 3.40863 1.18983 3.68983C0.908625 3.97104 0.750447 4.35231 0.75 4.75V18.25C0.750447 18.6477 0.908625 19.029 1.18983 19.3102C1.47104 19.5914 1.85231 19.7496 2.25 19.75H12.75C13.1477 19.7496 13.529 19.5914 13.8102 19.3102C14.0914 19.029 14.2496 18.6477 14.25 18.25V16.75H15.75C16.1477 16.7496 16.529 16.5914 16.8102 16.3102C17.0914 16.029 17.2496 15.6477 17.25 15.25V4.75C17.25 4.65151 17.2306 4.55398 17.1929 4.46298C17.1552 4.37198 17.1 4.2893 17.0303 4.21966ZM12.75 18.25H2.25V4.75H9.43941L12.75 8.06069L12.7507 15.9853C12.7507 15.9903 12.75 15.995 12.75 16C12.75 16.005 12.7507 16.0098 12.7507 16.0148L12.7509 18.25H12.75ZM15.75 15.25H14.25V7.75C14.25 7.65151 14.2306 7.55398 14.1929 7.46298C14.1552 7.37198 14.1 7.2893 14.0303 7.21966L10.2803 3.46966C10.2107 3.40001 10.128 3.34476 10.037 3.30707C9.94602 3.26939 9.84849 3.24999 9.75 3.25H5.25V1.75H12.4394L15.75 5.06069V15.25ZM10.5 12.25C10.5 12.4489 10.421 12.6397 10.2803 12.7803C10.1397 12.921 9.94891 13 9.75 13H5.25C5.05109 13 4.86032 12.921 4.71967 12.7803C4.57902 12.6397 4.5 12.4489 4.5 12.25C4.5 12.0511 4.57902 11.8603 4.71967 11.7197C4.86032 11.579 5.05109 11.5 5.25 11.5H9.75C9.94891 11.5 10.1397 11.579 10.2803 11.7197C10.421 11.8603 10.5 12.0511 10.5 12.25ZM10.5 15.25C10.5 15.4489 10.421 15.6397 10.2803 15.7803C10.1397 15.921 9.94891 16 9.75 16H5.25C5.05109 16 4.86032 15.921 4.71967 15.7803C4.57902 15.6397 4.5 15.4489 4.5 15.25C4.5 15.0511 4.57902 14.8603 4.71967 14.7197C4.86032 14.579 5.05109 14.5 5.25 14.5H9.75C9.94891 14.5 10.1397 14.579 10.2803 14.7197C10.421 14.8603 10.5 15.0511 10.5 15.25Z"
    fill="#262146" />
</svg>
  
