<svg width="20" height="19" viewBox="0 0 20 19" fill="none" xmlns="http://www.w3.org/2000/svg">
  <path
    d="M3.58267 5.53304V0.783529C3.58267 0.4611 3.32149 0.200195 2.99934 0.200195C2.6772 0.200195 2.41601 0.4611 2.41601 0.783529V5.53304C1.41252 5.79388 0.666016 6.69928 0.666016 7.78353C0.666016 8.86777 1.41252 9.77318 2.41601 10.034V18.2835C2.41601 18.606 2.6772 18.8669 2.99934 18.8669C3.32149 18.8669 3.58267 18.606 3.58267 18.2835V10.034C4.58617 9.77318 5.33267 8.86777 5.33267 7.78353C5.33267 6.69928 4.58617 5.79388 3.58267 5.53304Z"
    fill="#5A5A89" />
  <path
    d="M10.5827 9.61638V0.783529C10.5827 0.4611 10.3215 0.200195 9.99934 0.200195C9.6772 0.200195 9.41601 0.4611 9.41601 0.783529V9.61638C8.41252 9.87721 7.66602 10.7826 7.66602 11.8669C7.66602 12.9511 8.41252 13.8565 9.41601 14.1173V18.2835C9.41601 18.606 9.6772 18.8669 9.99934 18.8669C10.3215 18.8669 10.5827 18.606 10.5827 18.2835V14.1173C11.5862 13.8565 12.3327 12.9511 12.3327 11.8669C12.3327 10.7826 11.5862 9.87721 10.5827 9.61638Z"
    fill="#5A5A89" />
  <path
    d="M19.3327 7.78353C19.3327 6.69928 18.5862 5.79388 17.5827 5.53304V0.783529C17.5827 0.4611 17.3215 0.200195 16.9993 0.200195C16.6772 0.200195 16.416 0.4611 16.416 0.783529V5.53304C15.4125 5.79388 14.666 6.69928 14.666 7.78353C14.666 8.86777 15.4125 9.77318 16.416 10.034V18.2835C16.416 18.606 16.6772 18.8669 16.9993 18.8669C17.3215 18.8669 17.5827 18.606 17.5827 18.2835V10.034C18.5862 9.77318 19.3327 8.86777 19.3327 7.78353Z"
    fill="#5A5A89" />
</svg>
  
