<svg width="30" height="28" viewBox="0 0 30 28" xmlns="http://www.w3.org/2000/svg">
  <path
    d="M15.0001 23.4091C11.8963 23.4168 8.85267 22.5633 6.21563 20.9458C4.27818 19.7575 2.5722 18.0026 1.25996 16.0639C0.378576 14.7618 0.378928 13.0569 1.27233 11.7629C3.17399 9.0087 5.87662 6.71333 8.97562 5.52431C12.8512 4.03733 17.1491 4.0376 21.0244 5.52431C24.1232 6.71313 26.8259 9.00849 28.7276 11.7629C29.621 13.0568 29.6214 14.7618 28.74 16.064C27.4278 18.0027 25.7218 19.7575 23.7844 20.9458C21.1475 22.5633 18.1041 23.4168 15.0001 23.4091ZM3.1612 11.6782C2.12265 12.9863 2.12269 14.833 3.16126 16.1411C4.84539 18.2623 7.09339 19.9051 9.677 20.8707C13.1069 22.1525 16.8926 22.1525 20.3224 20.8707C22.9061 19.9051 25.1541 18.2624 26.8382 16.1411C27.8768 14.833 27.8768 12.9863 26.8382 11.6783C25.1541 9.55707 22.9061 7.91427 20.3224 6.94869C16.8926 5.66682 13.1069 5.66688 9.677 6.94869C7.09339 7.91422 4.84531 9.55701 3.1612 11.6782ZM15.0001 19.4306C13.5181 19.4306 12.097 18.8489 11.0491 17.8134C10.0012 16.778 9.41235 15.3739 9.41235 13.9097C9.41235 12.4454 10.0011 11.0413 11.0491 10.0059C12.097 8.97053 13.5181 8.38875 15.0001 8.38875C16.482 8.38875 17.9031 8.9705 18.951 10.0059C19.999 11.0414 20.5878 12.4454 20.5878 13.9097C20.5859 15.3734 19.9966 16.7767 18.9492 17.8116C17.9018 18.8465 16.4816 19.4288 15.0001 19.4306ZM15.0001 9.96631C13.9414 9.96631 12.9263 10.3817 12.178 11.1214C11.4294 11.8608 11.009 12.8637 11.009 13.9097C11.009 14.9557 11.4294 15.9586 12.178 16.698C12.9264 17.4376 13.9414 17.853 15.0001 17.853C16.0587 17.853 17.0738 17.4377 17.8221 16.698C18.5707 15.9586 18.9911 14.9557 18.9911 13.9097C18.9901 12.8642 18.5694 11.8618 17.821 11.1224C17.0726 10.3831 16.0581 9.96739 15.0001 9.96631Z"
    fill="#5A5A89" />
  <path d="M3.2,0.7l24.69,24.69l-1.91,1.91l-24.69,-24.69Z" rx="1.34979" fill="#5A5A89"
    stroke="white" />
</svg>
  
