<svg width="29" height="28" viewBox="0 0 29 28" fill="none" xmlns="http://www.w3.org/2000/svg">
  <path
    d="M13.2978 2.20882C13.6227 1.90163 14.0529 1.73047 14.5 1.73047C14.9471 1.73047 15.3773 1.90163 15.7023 2.20882L24.1793 10.2221C24.7043 10.7173 25 11.4086 25 12.1296V21.8771C25 22.5733 24.7234 23.2409 24.2312 23.7332C23.7389 24.2255 23.0712 24.5021 22.375 24.5021H18.875C18.5301 24.5021 18.1886 24.4341 17.8701 24.3021C17.5515 24.1701 17.262 23.9765 17.0182 23.7326C16.7744 23.4887 16.5811 23.1991 16.4493 22.8804C16.3175 22.5617 16.2498 22.2202 16.25 21.8753V17.5003C16.25 17.2683 16.1578 17.0457 15.9937 16.8816C15.8296 16.7175 15.6071 16.6253 15.375 16.6253H13.625C13.3929 16.6253 13.1704 16.7175 13.0063 16.8816C12.8422 17.0457 12.75 17.2683 12.75 17.5003V21.8753C12.75 22.5715 12.4734 23.2392 11.9812 23.7315C11.4889 24.2238 10.8212 24.5003 10.125 24.5003H6.625C5.92881 24.5003 5.26113 24.2238 4.76884 23.7315C4.27656 23.2392 4 22.5715 4 21.8753V12.1278C4 11.4068 4.2975 10.7156 4.8225 10.2203L13.2978 2.20532V2.20882ZM14.5 3.47932L6.023 11.4943C5.93694 11.5759 5.86837 11.6741 5.82144 11.783C5.77451 11.8919 5.7502 12.0092 5.75 12.1278V21.8753C5.75 22.1074 5.84219 22.3299 6.00628 22.494C6.17038 22.6581 6.39294 22.7503 6.625 22.7503H10.125C10.3571 22.7503 10.5796 22.6581 10.7437 22.494C10.9078 22.3299 11 22.1074 11 21.8753V17.5003C11 16.8041 11.2766 16.1364 11.7688 15.6442C12.2611 15.1519 12.9288 14.8753 13.625 14.8753H15.375C16.0712 14.8753 16.7389 15.1519 17.2312 15.6442C17.7234 16.1364 18 16.8041 18 17.5003V21.8753C18 22.1074 18.0922 22.3299 18.2563 22.494C18.4204 22.6581 18.6429 22.7503 18.875 22.7503H22.375C22.6071 22.7503 22.8296 22.6581 22.9937 22.494C23.1578 22.3299 23.25 22.1074 23.25 21.8753V12.1278C23.25 12.0089 23.2258 11.8913 23.1789 11.7821C23.132 11.6729 23.0633 11.5744 22.977 11.4926L14.5 3.47932Z"
    fill="#B6B6EA" />
</svg>
