<svg width="35" height="36" viewBox="0 0 35 36" fill="none" xmlns="http://www.w3.org/2000/svg">
  <path
    d="M16.2978 2.20833C16.6227 1.90114 17.0529 1.72998 17.5 1.72998C17.9471 1.72998 18.3773 1.90114 18.7023 2.20833L27.1793 10.2216C27.7043 10.7168 28 11.4081 28 12.1291V21.8766C28 22.5728 27.7234 23.2405 27.2312 23.7327C26.7389 24.225 26.0712 24.5016 25.375 24.5016H21.875C21.5301 24.5016 21.1886 24.4336 20.8701 24.3016C20.5515 24.1696 20.262 23.9761 20.0182 23.7321C19.7744 23.4882 19.5811 23.1986 19.4493 22.8799C19.3175 22.5612 19.2498 22.2197 19.25 21.8748V17.4998C19.25 17.2678 19.1578 17.0452 18.9937 16.8811C18.8296 16.717 18.6071 16.6248 18.375 16.6248H16.625C16.3929 16.6248 16.1704 16.717 16.0063 16.8811C15.8422 17.0452 15.75 17.2678 15.75 17.4998V21.8748C15.75 22.571 15.4734 23.2387 14.9812 23.731C14.4889 24.2233 13.8212 24.4998 13.125 24.4998H9.625C8.92881 24.4998 8.26113 24.2233 7.76884 23.731C7.27656 23.2387 7 22.571 7 21.8748V12.1273C7 11.4063 7.2975 10.7151 7.8225 10.2198L16.2978 2.20483V2.20833ZM17.5 3.47883L9.023 11.4938C8.93694 11.5754 8.86837 11.6736 8.82144 11.7825C8.77451 11.8914 8.7502 12.0087 8.75 12.1273V21.8748C8.75 22.1069 8.84219 22.3295 9.00628 22.4935C9.17038 22.6576 9.39294 22.7498 9.625 22.7498H13.125C13.3571 22.7498 13.5796 22.6576 13.7437 22.4935C13.9078 22.3295 14 22.1069 14 21.8748V17.4998C14 16.8036 14.2766 16.136 14.7688 15.6437C15.2611 15.1514 15.9288 14.8748 16.625 14.8748H18.375C19.0712 14.8748 19.7389 15.1514 20.2312 15.6437C20.7234 16.136 21 16.8036 21 17.4998V21.8748C21 22.1069 21.0922 22.3295 21.2563 22.4935C21.4204 22.6576 21.6429 22.7498 21.875 22.7498H25.375C25.6071 22.7498 25.8296 22.6576 25.9937 22.4935C26.1578 22.3295 26.25 22.1069 26.25 21.8748V12.1273C26.25 12.0085 26.2258 11.8908 26.1789 11.7816C26.132 11.6724 26.0633 11.5739 25.977 11.4921L17.5 3.47883Z"
    fill="white" />
  <rect y="32" width="35" height="4" rx="2" fill="white" />
</svg>
  
