<svg width="19" height="20" viewBox="0 0 19 20" fill="none" xmlns="http://www.w3.org/2000/svg">
  <path
    d="M11.4301 0.5C11.5775 0.500005 11.7211 0.545605 11.8403 0.630235C11.9594 0.714864 12.0479 0.834156 12.093 0.970929L12.8589 3.29029C13.1806 3.44364 13.4883 3.616 13.7822 3.81007L16.2275 3.29707C16.3717 3.26707 16.5219 3.28245 16.6566 3.34098C16.7912 3.39951 16.9033 3.49819 16.9767 3.62279L18.9069 6.87857C18.9806 7.0031 19.0118 7.14722 18.996 7.29015C18.9802 7.43308 18.9183 7.56744 18.8191 7.67386L17.1411 9.47886C17.1655 9.82497 17.1655 10.1723 17.1411 10.5184L18.8191 12.3261C18.9183 12.4326 18.9802 12.5669 18.996 12.7098C19.0118 12.8528 18.9806 12.9969 18.9069 13.1214L16.9767 16.3786C16.9031 16.5029 16.7909 16.6013 16.6563 16.6596C16.5217 16.7179 16.3716 16.7331 16.2275 16.7029L13.7822 16.1899C13.4897 16.3826 13.1806 16.5564 12.8603 16.7097L12.093 19.0291C12.0479 19.1658 11.9594 19.2851 11.8403 19.3698C11.7211 19.4544 11.5775 19.5 11.4301 19.5H7.56989C7.42247 19.5 7.27886 19.4544 7.15974 19.3698C7.04062 19.2851 6.95213 19.1658 6.90702 19.0291L6.1425 16.7111C5.82167 16.5582 5.51223 16.3836 5.21643 16.1886L2.77246 16.7029C2.62828 16.7329 2.47805 16.7176 2.34341 16.659C2.20877 16.6005 2.09667 16.5018 2.02325 16.3772L0.0931434 13.1214C0.0194406 12.9969 -0.0117777 12.8528 0.00399007 12.7098C0.0197578 12.5669 0.0816967 12.4326 0.180876 12.3261L1.85893 10.5184C1.83462 10.1732 1.83462 9.82678 1.85893 9.48157L0.180876 7.67386C0.0816967 7.56744 0.0197578 7.43308 0.00399007 7.29015C-0.0117777 7.14722 0.0194406 7.0031 0.0931434 6.87857L2.02325 3.62143C2.09687 3.49708 2.20906 3.39869 2.34368 3.3404C2.47831 3.28212 2.62843 3.26695 2.77246 3.29707L5.21643 3.81143C5.51166 3.61736 5.82081 3.44229 6.1425 3.28893L6.90841 0.970929C6.95338 0.834596 7.04144 0.715621 7.16001 0.631032C7.27857 0.546443 7.42156 0.500578 7.5685 0.5H11.4287H11.4301ZM10.9204 1.85714H8.07957L7.28859 4.25521L6.75523 4.509C6.49303 4.63404 6.23992 4.77642 5.99767 4.93514L5.5047 5.26086L2.97578 4.72886L1.55535 7.12829L3.28911 8.99843L3.24733 9.57386C3.22732 9.85762 3.22732 10.1424 3.24733 10.4261L3.28911 11.0016L1.55256 12.8717L2.97438 15.2711L5.5033 14.7405L5.99628 15.0649C6.23853 15.2236 6.49164 15.366 6.75384 15.491L7.28719 15.7448L8.07957 18.1429H10.9232L11.717 15.7434L12.2489 15.491C12.5109 15.3662 12.7635 15.2239 13.0051 15.0649L13.4967 14.7405L16.027 15.2711L17.4474 12.8717L15.7123 11.0016L15.7541 10.4261C15.7741 10.1419 15.7741 9.85671 15.7541 9.5725L15.7123 8.99707L17.4488 7.12829L16.027 4.72886L13.4967 5.25814L13.0051 4.93514C12.7636 4.7761 12.5109 4.63371 12.2489 4.509L11.717 4.25657L10.9218 1.85714H10.9204ZM9.5 5.92857C10.608 5.92857 11.6706 6.35752 12.4541 7.12107C13.2376 7.88461 13.6777 8.92019 13.6777 10C13.6777 11.0798 13.2376 12.1154 12.4541 12.8789C11.6706 13.6425 10.608 14.0714 9.5 14.0714C8.392 14.0714 7.32937 13.6425 6.5459 12.8789C5.76242 12.1154 5.32227 11.0798 5.32227 10C5.32227 8.92019 5.76242 7.88461 6.5459 7.12107C7.32937 6.35752 8.392 5.92857 9.5 5.92857ZM9.5 7.28571C8.76133 7.28571 8.05292 7.57168 7.5306 8.08071C7.00828 8.58974 6.71485 9.28013 6.71485 10C6.71485 10.7199 7.00828 11.4103 7.5306 11.9193C8.05292 12.4283 8.76133 12.7143 9.5 12.7143C10.2387 12.7143 10.9471 12.4283 11.4694 11.9193C11.9917 11.4103 12.2852 10.7199 12.2852 10C12.2852 9.28013 11.9917 8.58974 11.4694 8.08071C10.9471 7.57168 10.2387 7.28571 9.5 7.28571Z"
    fill="#262146" />
</svg>
  
