<svg width="24" height="24" viewBox="0 0 24 24" fill="none" xmlns="http://www.w3.org/2000/svg">
  <path
    d="M11.2593 3.50639C11.5153 2.8312 12.4841 2.8312 12.7409 3.50639L14.3968 8.09352C14.5128 8.39752 14.808 8.59992 15.1376 8.59992H19.207C19.9589 8.59992 20.2869 9.5359 19.6958 9.99429L16.7999 12.5999C16.6702 12.6996 16.5754 12.8378 16.5291 12.9948C16.4828 13.1517 16.4874 13.3193 16.5423 13.4734L17.5998 17.9558C17.8574 18.6758 17.0239 19.2942 16.3935 18.851L12.4601 16.355C12.3254 16.2603 12.1647 16.2095 12.0001 16.2095C11.8355 16.2095 11.6748 16.2603 11.5401 16.355L7.60669 18.851C6.97712 19.2942 6.14276 18.675 6.40035 17.9558L7.4579 13.4734C7.51276 13.3193 7.51738 13.1517 7.47111 12.9948C7.42483 12.8378 7.33003 12.6996 7.20031 12.5999L4.30444 9.99429C3.71246 9.5359 4.04205 8.59992 4.79242 8.59992H8.86184C9.02206 8.60045 9.17868 8.55232 9.31095 8.4619C9.44323 8.37147 9.54493 8.24301 9.6026 8.09352L11.2585 3.50639H11.2593Z"
    stroke="white" stroke-width="1.5" stroke-linecap="round" stroke-linejoin="round" />
</svg>
  
