<svg width="35" height="36" viewBox="0 0 35 36" fill="none" xmlns="http://www.w3.org/2000/svg">
  <path
    d="M16.4195 3.07151C16.7928 2.08684 18.2057 2.08684 18.5802 3.07151L20.9952 9.76117C21.1643 10.2045 21.5948 10.4997 22.0755 10.4997H28.0103C29.107 10.4997 29.5853 11.8647 28.7232 12.5332L24.4998 16.333C24.3107 16.4784 24.1724 16.6801 24.1049 16.9089C24.0374 17.1378 24.0442 17.3822 24.1242 17.607L25.6665 24.1438C26.0422 25.1938 24.8265 26.0957 23.9072 25.4493L18.1707 21.8093C17.9742 21.6713 17.74 21.5972 17.4998 21.5972C17.2597 21.5972 17.0255 21.6713 16.829 21.8093L11.0925 25.4493C10.1743 26.0957 8.95751 25.1927 9.33318 24.1438L10.8755 17.607C10.9555 17.3822 10.9623 17.1378 10.8948 16.9089C10.8273 16.6801 10.689 16.4784 10.4998 16.333L6.27651 12.5332C5.41318 11.8647 5.89385 10.4997 6.98818 10.4997H12.923C13.1567 10.5005 13.3851 10.4303 13.578 10.2984C13.7709 10.1665 13.9192 9.97919 14.0033 9.76117L16.4183 3.07151H16.4195Z"
    stroke="white" stroke-width="2" stroke-linecap="round" stroke-linejoin="round" />
  <rect y="32" width="35" height="4" rx="2" fill="white" />
</svg>
  
