<svg width="395" height="367" viewBox="0 0 395 367" fill="none" xmlns="http://www.w3.org/2000/svg">
  <path opacity="0.6"
    d="M32.5007 36.9192C33.9878 21.4776 46.5615 9.71484 61.5808 9.71484H365.562C382.846 9.71484 396.354 25.1287 394.643 42.8985L366.077 339.51C364.59 354.952 352.017 366.715 336.997 366.715H33.0156C15.732 366.715 2.22417 351.301 3.93549 333.531L32.5007 36.9192Z"
    fill="white" />
  <path
    d="M0.789062 30.9187C0.789062 14.2376 13.8831 0.714844 30.0355 0.714844H334.543C350.695 0.714844 363.789 14.2376 363.789 30.9187V336.511C363.789 353.192 350.695 366.715 334.543 366.715H30.0355C13.8831 366.715 0.789062 353.192 0.789062 336.511V30.9187Z"
    fill="white" />
</svg>
  
